<svg xmlns="http://www.w3.org/2000/svg" xmlns:xlink="http://www.w3.org/1999/xlink" width="800" height="600" viewBox="0 0 800 600">
  <defs>
    <clipPath id="clip-path">
      <rect id="Rectangle_3890" data-name="Rectangle 3890" width="773" height="581" transform="translate(1082 659)" fill="#fff" stroke="#707070" stroke-width="1"/>
    </clipPath>
    <linearGradient id="linear-gradient" x1="0.342" y1="0.05" x2="0.786" y2="1" gradientUnits="objectBoundingBox">
      <stop offset="0" stop-color="#b1ffbe"/>
      <stop offset="0.444" stop-color="#5cdb8e"/>
      <stop offset="1" stop-color="#149654"/>
    </linearGradient>
    <linearGradient id="linear-gradient-4" x1="0.5" x2="0.5" y2="1" gradientUnits="objectBoundingBox">
      <stop offset="0" stop-color="#ffd25f"/>
      <stop offset="1" stop-color="#ff995b"/>
    </linearGradient>
    <linearGradient id="linear-gradient-5" x1="0.505" y1="0.248" x2="0.455" y2="1.319" gradientUnits="objectBoundingBox">
      <stop offset="0" stop-color="#ffd25f"/>
      <stop offset="1" stop-color="#ff7f31"/>
    </linearGradient>
    <linearGradient id="linear-gradient-6" x1="0.908" y1="0.5" x2="0.128" y2="0.631" gradientUnits="objectBoundingBox">
      <stop offset="0" stop-color="#ffebbe"/>
      <stop offset="1" stop-color="#d9b978"/>
    </linearGradient>
    <linearGradient id="linear-gradient-7" x1="0.384" y1="0.59" x2="0.312" y2="0.81" gradientUnits="objectBoundingBox">
      <stop offset="0" stop-color="#0064e9" stop-opacity="0"/>
      <stop offset="1" stop-color="#00357e" stop-opacity="0.141"/>
    </linearGradient>
    <linearGradient id="linear-gradient-8" x1="1" y1="0.321" x2="0" y2="0.5" gradientUnits="objectBoundingBox">
      <stop offset="0" stop-color="#ffccb5"/>
      <stop offset="1" stop-color="#fc8b8b"/>
    </linearGradient>
    <linearGradient id="linear-gradient-12" x1="0.07" x2="0.947" y2="1" gradientUnits="objectBoundingBox">
      <stop offset="0" stop-color="#363471"/>
      <stop offset="1" stop-color="#1e1f48"/>
    </linearGradient>
    <linearGradient id="linear-gradient-13" x1="0.07" x2="0.947" y2="1" gradientUnits="objectBoundingBox">
      <stop offset="0" stop-color="#8885df"/>
      <stop offset="1" stop-color="#1e1f48"/>
    </linearGradient>
    <linearGradient id="linear-gradient-15" x1="0.5" y1="1" x2="0.5" gradientUnits="objectBoundingBox">
      <stop offset="0" stop-color="#ffd5a7"/>
      <stop offset="0.372" stop-color="#ffd7aa"/>
      <stop offset="0.654" stop-color="#ffddb3"/>
      <stop offset="0.907" stop-color="#ffe8c3"/>
      <stop offset="1" stop-color="#fec"/>
    </linearGradient>
    <linearGradient id="linear-gradient-19" x1="0.5" x2="0.5" y2="1" gradientUnits="objectBoundingBox">
      <stop offset="0" stop-color="#fff" stop-opacity="0"/>
      <stop offset="1" stop-color="#fff"/>
    </linearGradient>
    <clipPath id="clip-contact_us">
      <rect width="800" height="600"/>
    </clipPath>
  </defs>
  <g id="contact_us" clip-path="url(#clip-contact_us)">
    <g id="Mask_Group_41" data-name="Mask Group 41" transform="translate(-1068 -649)" clip-path="url(#clip-path)">
      <g id="Group_6144" data-name="Group 6144" transform="translate(8.739)">
        <g id="Group_6120" data-name="Group 6120" transform="translate(1032.866 668.264)">
          <g id="Group_6119" data-name="Group 6119" transform="translate(0 0)" opacity="0.39">
            <path id="Path_17748" data-name="Path 17748" d="M1029.233,269.03c-48.835-84.9-205.383-77.222-205.383-77.222S683.6,82.5,635.619,190.466,603.234,337.037,453.827,319.289c-149.7-17.783-192.43,123.983-92.458,185.342C464.025,567.636,491.689,649.182,661.11,664.857c104.036,9.626,303.374-45.709,358.082-133.451C1069.233,451.148,1078.069,353.929,1029.233,269.03Z" transform="translate(-257.798 -115.034)" fill="#f0f0f0"/>
          </g>
        </g>
        <g id="Group_6127" data-name="Group 6127" transform="translate(1559.042 877.554)">
          <g id="Group_6125" data-name="Group 6125">
            <g id="Group_6122" data-name="Group 6122" transform="translate(57.751)">
              <path id="Path_17749" data-name="Path 17749" d="M605.528,381.439c-16.743-2.949-34.865-51.752-3.685-68.1s41.7-25.018,48.212-63.1,28.687-20.008,23.693,2.283,28.292,19.521,35.238,30.154c12.034,18.424-14.585,21.367-29.829,31.854s11.961,17.663,1.142,35.41S634.078,386.467,605.528,381.439Z" transform="translate(-584.848 -228.116)" stroke="rgba(0,0,0,0)" stroke-width="1" fill="url(#linear-gradient)"/>
              <g id="Group_6121" data-name="Group 6121" transform="translate(18.967 72.43)">
                <line id="Line_146" data-name="Line 146" y1="9.479" x2="40.81" transform="translate(17.286 43.289)" fill="none" stroke="#fff" stroke-miterlimit="10" stroke-width="1.177"/>
              </g>
            </g>
            <g id="Group_6123" data-name="Group 6123" transform="translate(0 43.798)">
              <path id="Path_17750" data-name="Path 17750" d="M638.51,384.86s-9.393-18.339,6.646-30.094,23.137-26.864,13.986-40.748-32.641-5.229-42.573-11.867-5.662-20.842-13.806-36.2c-10.914-20.59-32.037-15.155-36.98-11.977s-13.7,12.893-2.237,31.573,3.015,25.229-6.11,39.889,6.867,20.361,32.826,25.312S620.7,387.58,620.7,387.58l17.808-2.72" transform="translate(-554.85 -250.866)" stroke="rgba(0,0,0,0)" stroke-width="1" fill="url(#linear-gradient)"/>
            </g>
            <g id="Group_6124" data-name="Group 6124" transform="translate(80.473 87.553)">
              <path id="Path_17751" data-name="Path 17751" d="M656.056,354.359c29.734,7.52,30.454-18.391,12.236-32.84-11.387-9.033,11.861-13.854,20.863-22.632,15.471-15.089-9.339-34.056-22.207-20.84s-20.85,17.274-30.223,18.428-35.833,1.44-33.55,18.272c1.423,10.488-7.647,19.448-6.409,29.961C624.264,335.4,640.565,350.441,656.056,354.359Z" transform="translate(-596.65 -273.594)" stroke="rgba(0,0,0,0)" stroke-width="1" fill="url(#linear-gradient)"/>
            </g>
          </g>
          <g id="Group_6126" data-name="Group 6126" transform="translate(51.798 152.517)">
            <path id="Path_17752" data-name="Path 17752" d="M638.933,356.581H595.421l-10.128-43.49h63.769Z" transform="translate(-578.483 -302.016)" fill="#39306c"/>
            <rect id="Rectangle_3886" data-name="Rectangle 3886" width="77.388" height="17.507" fill="#4b4583"/>
          </g>
        </g>
        <g id="Group_6128" data-name="Group 6128" transform="translate(1204.991 894.853)">
          <path id="Path_17753" data-name="Path 17753" d="M429.361,316.819h-3.494v-4.724a3.646,3.646,0,0,0-3.644-3.646H380.835a3.646,3.646,0,0,0-3.644,3.646v28.939a19.842,19.842,0,0,0,19.843,19.843h8.991a19.835,19.835,0,0,0,18.755-13.411h4.582a6.338,6.338,0,0,0,6.338-6.338v-17.97A6.338,6.338,0,0,0,429.361,316.819Zm2.287,24.309a2.29,2.29,0,0,1-2.287,2.287h-3.65a20.234,20.234,0,0,0,.156-2.381V320.871h3.494a2.29,2.29,0,0,1,2.287,2.287Z" transform="translate(-365.163 -171.093)" fill="#6f2073"/>
          <path id="Path_17754" data-name="Path 17754" d="M420.554,318.726a26.71,26.71,0,0,0-2.1-10.278h-37.62a3.646,3.646,0,0,0-3.644,3.646v28.939a19.741,19.741,0,0,0,2.51,9.649c.57.019,1.13.069,1.706.069C403.027,350.752,420.554,336.413,420.554,318.726Z" transform="translate(-365.163 -171.093)" fill="#8a288f"/>
        </g>
        <g id="Group_6129" data-name="Group 6129" transform="translate(1152.181 1084.636)">
          <path id="Path_17755" data-name="Path 17755" d="M907.637,364.326h-549.8A14.322,14.322,0,0,1,343.512,350h0a14.323,14.323,0,0,1,14.321-14.323h549.8A14.322,14.322,0,0,1,921.958,350h0A14.321,14.321,0,0,1,907.637,364.326Z" transform="translate(-343.512 -335.681)" stroke="rgba(0,0,0,0)" stroke-width="1" fill="url(#linear-gradient-4)"/>
        </g>
        <g id="Group_6131" data-name="Group 6131" transform="translate(1590.147 774.789)">
          <circle id="Ellipse_17" data-name="Ellipse 17" cx="37.192" cy="37.192" r="37.192" fill="#8a288f"/>
          <circle id="Ellipse_18" data-name="Ellipse 18" cx="28.999" cy="28.999" r="28.999" transform="translate(8.192 8.192)" fill="#fff"/>
          <g id="Group_6130" data-name="Group 6130" transform="translate(37.192 19.755)">
            <line id="Line_147" data-name="Line 147" y1="17.437" fill="none" stroke="#8a288f" stroke-linecap="round" stroke-linejoin="round" stroke-width="5"/>
            <line id="Line_148" data-name="Line 148" x2="10.66" y2="10.66" transform="translate(0 17.437)" fill="none" stroke="#8a288f" stroke-linecap="round" stroke-linejoin="round" stroke-width="5"/>
          </g>
        </g>
        <g id="Group_6132" data-name="Group 6132" transform="translate(1289.531 760.233)">
          <path id="Path_17756" data-name="Path 17756" d="M483.2,178.913a40.075,40.075,0,1,0-7.7,62.684,5.945,5.945,0,0,1,4.755-.576l10.132,3.017a1.014,1.014,0,0,0,1.261-1.261l-3.015-10.134a5.952,5.952,0,0,1,.581-4.767A40.078,40.078,0,0,0,483.2,178.913Z" transform="translate(-414.856 -167.175)" fill="url(#linear-gradient-5)"/>
        </g>
        <g id="Group_6135" data-name="Group 6135" transform="translate(1399.837 745.9)">
          <path id="Path_17757" data-name="Path 17757" d="M495.784,204.81s-4.051-17.894,13.168-33.255,43.827-13.961,58.415-5.951c18.907,10.382,37.468,37.857,20.5,77.105s60.77,23.042,34.69,76.216-71.152,16.46-87.358,38.49-72.3-35.727-24.379-76.1S499.412,241.1,495.784,204.81Z" transform="translate(-453.919 -159.73)" fill="url(#linear-gradient-6)"/>
          <path id="Path_17758" data-name="Path 17758" d="M509.632,244.333c-19.671,8.384-35.958,58.234-37.479,164.585h42.394S540.3,231.259,509.632,244.333Z" transform="translate(-472.153 -82.095)" fill="#6f2073"/>
          <path id="Path_17759" data-name="Path 17759" d="M551.284,236.061c23.248-2.295,61.147,1.567,74.768,16.608,3.005,3.319,3.021,9.535,1.409,18.135-5.689,30.385-31.683,90.516-17.867,157.608H488.556s11.48-52.428,5.065-68.971c-7.335-18.915-13.682-36.008-6.461-51.806,16.443-35.974,1.717-50.867,12.136-56.067C513.636,244.411,531.617,238,551.284,236.061Z" transform="translate(-461.209 -89.677)" fill="#8a288f"/>
          <path id="Path_17760" data-name="Path 17760" d="M571.861,305.861c-5.063,29.374-39.079,33-56.128,27.262,0,0,24.815,15.024,42.708,6.584,0,0,4.559,14.348-2.256,59.472H578.44s-.006-.09-.013-.231c-3.521-23.6-2.416-46.179.656-66.7a94.513,94.513,0,0,1,2.378-13.734l.033-.125c2.82-14.387,6.349-27.536,9.516-39.017a128.176,128.176,0,0,0,1.869-23.144A121.106,121.106,0,0,0,571.861,305.861Z" transform="translate(-418.834 -70.45)" fill="url(#linear-gradient-7)"/>
          <path id="Path_17761" data-name="Path 17761" d="M582.946,314.762S561.8,340.731,551.579,333.7c-13.538-9.314-24.681-9.147-33.627-3.8a32.8,32.8,0,0,0-12.829,15.134H577.69l21.121-18.279Z" transform="translate(-441.65 -16.299)" fill="url(#linear-gradient-8)"/>
          <path id="Path_17762" data-name="Path 17762" d="M578.935,247.415s18.657,48.73,34.655,88.568c12.914,32.158-64.961,75.981-64.961,75.981l-12.86-17.234,44.849-49.716-27.43-57.838s-15.9-31.548,8.24-42.729C574.859,238.225,578.935,247.415,578.935,247.415Z" transform="translate(-413.297 -83.353)" fill="#6f2073"/>
          <path id="Path_17763" data-name="Path 17763" d="M547.1,211.118s-2.934,36.942,5.928,46.591c11.393,12.408-8.609,39.164-38.657,59.42,0,0-16.8-18.653-3.629-49.038s.4-47.548.4-47.548Z" transform="translate(-441.111 -112.188)" fill="url(#linear-gradient-8)"/>
          <path id="Path_17764" data-name="Path 17764" d="M563.7,224.858c0,25.312-17.833,45.809-32.9,45.809s-33.891-16.834-36.424-47.979c-2.05-25.229,11.543-43.663,32.1-43.663S563.7,199.545,563.7,224.858Z" transform="translate(-451.78 -141.879)" fill="url(#linear-gradient-8)"/>
          <path id="Path_17765" data-name="Path 17765" d="M510.649,178.679c-2.116,1.221-6.7,4.193-12.046,7.749-5.82,3.875-12.023,10.587-14.158,17.929-3.664,12.61,5.616,28.585,24.072,22.944s27.276-35.248,42.252-18.133c18.611,21.271,25.364,9.416,25.364,9.416s-3.733-26.483-22.592-38.4C543.434,173.795,528.206,168.551,510.649,178.679Z" transform="translate(-461.51 -147.461)" fill="url(#linear-gradient-6)"/>
          <g id="Group_6134" data-name="Group 6134" transform="translate(37.092 23.189)">
            <path id="Path_17766" data-name="Path 17766" d="M547.223,205.282c0,8.257-4.88,14.951-10.9,14.951s-10.9-6.694-10.9-14.951,4.88-14.951,10.9-14.951S547.223,197.025,547.223,205.282Z" transform="translate(-459.965 -154.608)" fill="#6f2073"/>
            <path id="Path_17767" data-name="Path 17767" d="M533.466,172.614c-16.768-3.23-32.938,3.107-42.046,14.939a48.725,48.725,0,0,1,36.705-7.254c22.274,4.289,38.051,22.38,38.575,42.467a35.837,35.837,0,0,0,1.024-4.016C571.779,197.693,556.441,177.038,533.466,172.614Z" transform="translate(-491.42 -171.775)" fill="#6f2073"/>
            <g id="Group_6133" data-name="Group 6133" transform="translate(36.172 55.554)">
              <path id="Path_17768" data-name="Path 17768" d="M543.316,200.632s3.04,33.791-28.021,37" transform="translate(-505.504 -200.632)" fill="none" stroke="#6f2073" stroke-width="3"/>
              <path id="Path_17769" data-name="Path 17769" d="M517.973,224.363h-4.9a2.87,2.87,0,0,1-2.868-2.87h0a2.87,2.87,0,0,1,2.868-2.87h4.9a2.87,2.87,0,0,1,2.87,2.87h0A2.87,2.87,0,0,1,517.973,224.363Z" transform="translate(-510.209 -183.988)" fill="#6f2073"/>
            </g>
          </g>
        </g>
        <g id="Group_6137" data-name="Group 6137" transform="translate(1260.628 959.282)">
          <g id="Group_6136" data-name="Group 6136" transform="translate(112.053 115.23)">
            <rect id="Rectangle_3887" data-name="Rectangle 3887" width="185.21" height="10.124" rx="2.317" fill="#39306c"/>
          </g>
          <path id="Path_17770" data-name="Path 17770" d="M611.151,395.922H448.34A10.524,10.524,0,0,1,438.45,389l-37.962-104.3a10.524,10.524,0,0,1,9.89-14.125h162.81a10.526,10.526,0,0,1,9.89,6.925L621.041,381.8A10.524,10.524,0,0,1,611.151,395.922Z" transform="translate(-399.843 -270.568)" stroke="rgba(0,0,0,0)" stroke-width="1" fill="url(#linear-gradient-12)"/>
          <path id="Path_17771" data-name="Path 17771" d="M403.363,271.257c.612,61.648,83.175,111.51,184.945,111.51,9.978,0,19.768-.485,29.317-1.407l-37.8-103.867a10.526,10.526,0,0,0-9.89-6.925H407.121A10.51,10.51,0,0,0,403.363,271.257Z" transform="translate(-396.587 -270.568)" stroke="rgba(0,0,0,0)" stroke-width="1" opacity="0.4" fill="url(#linear-gradient-13)"/>
        </g>
        <g id="Group_6139" data-name="Group 6139" transform="translate(1549.531 684.561)">
          <path id="Path_17772" data-name="Path 17772" d="M558.418,136.383A29.068,29.068,0,1,1,564,181.849a4.3,4.3,0,0,0-3.448-.416l-7.35,2.187a.735.735,0,0,1-.914-.914l2.187-7.35a4.323,4.323,0,0,0-.422-3.46A29.07,29.07,0,0,1,558.418,136.383Z" transform="translate(-549.91 -127.868)" fill="url(#linear-gradient)"/>
          <g id="Group_6138" data-name="Group 6138" transform="translate(8.225 24.373)">
            <circle id="Ellipse_19" data-name="Ellipse 19" cx="4.693" cy="4.693" r="4.693" fill="#fff"/>
            <circle id="Ellipse_20" data-name="Ellipse 20" cx="4.693" cy="4.693" r="4.693" transform="translate(16.123)" fill="#fff"/>
            <circle id="Ellipse_21" data-name="Ellipse 21" cx="4.693" cy="4.693" r="4.693" transform="translate(32.247)" fill="#fff"/>
          </g>
        </g>
        <g id="Group_6142" data-name="Group 6142" transform="translate(1163.409 692.215)" opacity="0.07">
          <g id="Group_6140" data-name="Group 6140" transform="translate(517.662 0)">
            <line id="Line_149" data-name="Line 149" x2="4.15" y2="4.15" fill="none" stroke="#4b4583" stroke-linecap="round" stroke-linejoin="round" stroke-width="1"/>
            <line id="Line_150" data-name="Line 150" x1="4.15" y2="4.15" fill="none" stroke="#4b4583" stroke-linecap="round" stroke-linejoin="round" stroke-width="1"/>
          </g>
          <g id="Group_6141" data-name="Group 6141" transform="translate(556.697 376.11)">
            <line id="Line_151" data-name="Line 151" x2="5.802" y2="5.801" fill="none" stroke="#4b4583" stroke-linecap="round" stroke-linejoin="round" stroke-width="1.398"/>
            <line id="Line_152" data-name="Line 152" x1="5.802" y2="5.801" fill="none" stroke="#4b4583" stroke-linecap="round" stroke-linejoin="round" stroke-width="1.398"/>
          </g>
          <path id="Path_17773" data-name="Path 17773" d="M524.105,144.676a3.557,3.557,0,1,1-3.558-3.558A3.556,3.556,0,0,1,524.105,144.676Z" transform="translate(-194.241 -123.265)" fill="none" stroke="#4b4583" stroke-linecap="round" stroke-linejoin="round" stroke-width="1.398"/>
        </g>
        <g id="Group_6143" data-name="Group 6143" transform="translate(-448 -104)">
          <path id="Path_17774" data-name="Path 17774" d="M239.906,735.648H221.012L188.742,286.772l-1.664-22.7h25.059l1.356,22.7Z" transform="translate(1599.835 953.518)" fill="url(#linear-gradient-15)" style="isolation: isolate"/>
          <path id="Path_17775" data-name="Path 17775" d="M267.106,264.072l-.494,76.207-2.588,395.369H245.13l-2.589-395.369-.493-76.207Z" transform="translate(1714.294 953.518)" fill="url(#linear-gradient-15)" style="isolation: isolate"/>
          <path id="Path_17776" data-name="Path 17776" d="M349.906,735.648H331.012L298.742,286.772l-1.664-22.7h25.059l1.356,22.7Z" transform="translate(1828.877 953.518)" fill="url(#linear-gradient-15)" style="isolation: isolate"/>
          <path id="Path_17777" data-name="Path 17777" d="M146.887,736.162H128.005l27.757-472.337h25.05Z" transform="translate(1476.836 953.004)" fill="url(#linear-gradient-15)"/>
        </g>
        <rect id="Rectangle_3888" data-name="Rectangle 3888" width="690" height="29" transform="translate(1110 1156)" fill="url(#linear-gradient-19)"/>
        <rect id="Rectangle_3889" data-name="Rectangle 3889" width="690" height="56" transform="translate(1110 1185)" fill="#fff"/>
      </g>
    </g>
  </g>
</svg>
